:SAMPLES-PER-SECOND 30
:FULLY-SPECIFIED
:DEGREES
112
root  -52.5766 39.4172 -1.29514 179.09 -13.8485 174.883
RightUpLeg  -10.7634 -8.15232 8.49121
RightLeg  19.8475 -22.1685 -2.65319
RightFoot  -17.1437 -0.65661 -10.631
RightToes  -4.65663e-010 0 -3.6325e-017
Spine  4.91494 -2.43195 5.1954
Spine1  3.24576 -2.13668 1.88915
HEad  -6.96562 -7.487 2.92146
LeftShoulder1  6.5795 -9.45122 -44.1983
LeftArm  -19.3398 16.704 -18.2221
LeftForeArm  26.5528 -35.4603 -6.41307
LeftHand  -0.244104 0.0205437 5.32207
RightShoulder  6.48364 10.1259 41.3506
RightArm  0.196205 -13.2481 34.5607
RightForeArm  2.72489 18.1074 5.54368
RightHand  -0.657438 0.247528 -13.5942
LeftUpLeg  -10.9992 16.0744 5.24441
LeftLeg  61.6383 3.72832 8.0331
LeftFoot  8.98651 0.95741 -5.62228
LeftToes  -7.27628e-011 -1.6005e-012 -1.37987e-011
113
root  -52.9662 39.6147 -2.16021 178.997 -7.13045 173.973
RightUpLeg  -8.21981 -6.74308 7.60033
RightLeg  18.7601 -17.1558 -1.59492
RightFoot  -17.6023 -0.699579 -10.579
RightToes  -4.65663e-010 0 -3.6325e-017
Spine  4.84002 -1.69767 4.71034
Spine1  3.33304 -1.18327 0.86599
HEad  -6.70482 -6.83937 2.08584
LeftShoulder1  6.54374 -9.34577 -44.3225
LeftArm  -18.8641 17.565 -19.8912
LeftForeArm  27.4695 -33.7226 -5.90927
LeftHand  -0.244104 0.0205437 5.32207
RightShoulder  6.59805 10.3816 41.3017
RightArm  6.88728 -10.8864 36.198
RightForeArm  1.66786 21.874 5.00408
RightHand  -0.630066 -0.0208823 -13.6553
LeftUpLeg  -13.6516 13.5521 4.40516
LeftLeg  60.121 5.28401 10.4033
LeftFoot  5.99563 0.254518 -1.89387
LeftToes  -7.27628e-011 -1.6005e-012 -1.37987e-011
114
root  -53.283 39.8074 -3.03678 179.101 -0.524719 172.992
RightUpLeg  -6.16914 -5.80571 6.42632
RightLeg  17.7183 -12.0437 -0.491217
RightFoot  -17.6557 -0.745189 -11.314
RightToes  -4.65663e-010 0 -3.6325e-017
Spine  4.71067 -0.979635 4.34058
Spine1  2.98573 -0.311993 -0.0821629
HEad  -6.57828 -6.41755 0.522973
LeftShoulder1  6.87339 -9.70646 -45.3251
LeftArm  -17.9161 18.6664 -20.6949
LeftForeArm  26.6277 -31.439 -5.3955
LeftHand  -0.244104 0.0205437 5.32207
RightShoulder  6.5236 10.3852 40.7846
RightArm  11.0202 -9.00668 37.6912
RightForeArm  4.44569 26.0298 5.31183
RightHand  -0.593835 -0.273969 -13.4891
LeftUpLeg  -16.1603 11.0064 3.58878
LeftLeg  56.7877 6.57652 11.1919
LeftFoot  3.18417 -0.167866 1.12676
LeftToes  -7.27628e-011 -1.6005e-012 -1.37987e-011
115
root  -53.5257 39.9904 -3.95038 179.234 5.79633 172.076
RightUpLeg  -4.5263 -4.98077 5.26326
RightLeg  16.8757 -6.96015 0.254135
RightFoot  -17.1567 -0.732947 -12.1055
RightToes  -4.65663e-010 0 -3.6325e-017
Spine  4.48933 -0.274487 4.71956
Spine1  2.5389 0.697808 -1.93385
HEad  -6.76346 -6.5608 -0.782686
LeftShoulder1  7.34462 -10.324 -46.3155
LeftArm  -16.6332 19.5555 -21.2504
LeftForeArm  25.2897 -28.512 -4.78678
LeftHand  -0.244104 0.0205437 5.32207
RightShoulder  6.3509 10.1324 40.413
RightArm  12.975 -7.83968 38.8653
RightForeArm  8.1583 30.4266 6.19713
RightHand  -0.565278 -0.415385 -13.1949
LeftUpLeg  -18.2061 8.87094 3.16804
LeftLeg  51.5281 6.93255 9.73928
LeftFoot  0.541415 -0.112786 1.01795
LeftToes  -7.27628e-011 -1.6005e-012 -1.37987e-011
116
root  -53.7067 40.1263 -4.89549 179.12 11.5337 171.252
RightUpLeg  -2.94347 -4.06642 4.18912
RightLeg  16.3286 -2.21714 0.522643
RightFoot  -16.6423 -0.712487 -12.9023
RightToes  -4.65663e-010 0 -3.6325e-017
Spine  4.46822 0.157779 5.30291
Spine1  2.15956 1.50006 -4.21602
HEad  -7.26821 -6.75357 -1.45965
LeftShoulder1  7.60268 -10.7322 -46.5773
LeftArm  -15.6677 20.2606 -22.3181
LeftForeArm  24.4563 -25.3814 -4.13918
LeftHand  -0.244104 0.0205437 5.32207
RightShoulder  6.21238 9.85297 40.3534
RightArm  14.1289 -7.02898 39.864
RightForeArm  10.5973 34.2509 7.04156
RightHand  -0.535001 -0.555549 -12.8394
LeftUpLeg  -19.6197 6.97169 3.0365
LeftLeg  44.5557 5.71821 6.42977
LeftFoot  -0.867483 0.0611202 -0.598351
LeftToes  -7.27628e-011 -1.6005e-012 -1.37987e-011
